<?xml version="1.0" encoding="UTF-8"?>
<mxfile host="app.diagrams.net" agent="Mozilla/5.0 (Macintosh; Intel Mac OS X 10_15_7) AppleWebKit/537.36 (KHTML, like Gecko) Chrome/139.0.0.0 Safari/537.36" version="28.1.0">
  <diagram id="gjPuwVGeOVExp56me1-b" name="RoadMap">
    <mxGraphModel dx="5740" dy="3738" grid="1" gridSize="10" guides="1" tooltips="1" connect="1" arrows="1" fold="1" page="1" pageScale="1" pageWidth="827" pageHeight="1169" math="0" shadow="0">
      <root>
        <mxCell id="0" />
        <mxCell id="1" parent="0" />
        <mxCell id="0rNn3jMllliEmjTPZ6OU-1" value="" style="shape=rect;fillColor=#fff2cc;strokeColor=none;fontSize=24;html=1;whiteSpace=wrap;align=left;verticalAlign=top;spacing=5;rounded=0;" vertex="1" parent="1">
          <mxGeometry x="-2500" y="-1146.8" width="1610" height="196.8" as="geometry" />
        </mxCell>
        <mxCell id="0rNn3jMllliEmjTPZ6OU-2" value="" style="shape=rect;fillColor=#fff2cc;strokeColor=none;fontSize=24;html=1;whiteSpace=wrap;align=left;verticalAlign=top;spacing=5;rounded=0;" vertex="1" parent="1">
          <mxGeometry x="-2500" y="-930" width="1610" height="230" as="geometry" />
        </mxCell>
        <mxCell id="0rNn3jMllliEmjTPZ6OU-3" value="" style="shape=rect;fillColor=#fff2cc;strokeColor=none;fontSize=24;html=1;whiteSpace=wrap;align=left;verticalAlign=top;spacing=5;rounded=0;" vertex="1" parent="1">
          <mxGeometry x="-2500" y="-680" width="1610" height="180" as="geometry" />
        </mxCell>
        <mxCell id="0rNn3jMllliEmjTPZ6OU-4" value="" style="shape=rect;fillColor=#fff2cc;strokeColor=none;fontSize=24;html=1;whiteSpace=wrap;align=left;verticalAlign=top;spacing=5;rounded=0;" vertex="1" parent="1">
          <mxGeometry x="-2490" y="-470" width="1600" height="230" as="geometry" />
        </mxCell>
        <mxCell id="0rNn3jMllliEmjTPZ6OU-5" value="АБС" style="rounded=0;whiteSpace=wrap;html=1;fillColor=#f5f5f5;fontColor=#333333;strokeColor=#666666;fontSize=18;" vertex="1" parent="1">
          <mxGeometry x="-2630" y="-1146.8" width="120" height="196.8" as="geometry" />
        </mxCell>
        <mxCell id="0rNn3jMllliEmjTPZ6OU-6" value="Интернет-банк" style="rounded=0;whiteSpace=wrap;html=1;fillColor=#f5f5f5;fontColor=#333333;strokeColor=#666666;fontSize=18;" vertex="1" parent="1">
          <mxGeometry x="-2630" y="-930" width="120" height="230" as="geometry" />
        </mxCell>
        <mxCell id="0rNn3jMllliEmjTPZ6OU-7" value="Система колл-центра" style="rounded=0;whiteSpace=wrap;html=1;fillColor=#f5f5f5;fontColor=#333333;strokeColor=#666666;fontSize=18;" vertex="1" parent="1">
          <mxGeometry x="-2630" y="-680" width="120" height="180" as="geometry" />
        </mxCell>
        <mxCell id="0rNn3jMllliEmjTPZ6OU-8" value="Сайт банка" style="rounded=0;whiteSpace=wrap;html=1;fillColor=#f5f5f5;fontColor=#333333;strokeColor=#666666;fontSize=18;" vertex="1" parent="1">
          <mxGeometry x="-2630" y="-470" width="120" height="230" as="geometry" />
        </mxCell>
        <mxCell id="0rNn3jMllliEmjTPZ6OU-9" value="Q1-Q2 2025 (MVP 6 месяцев)" style="shape=step;perimeter=stepPerimeter;whiteSpace=wrap;html=1;fixedSize=1;size=10;fillColor=#f5f5f5;strokeColor=#666666;fontSize=18;fontStyle=1;align=center;rounded=0;fontColor=#333333;" vertex="1" parent="1">
          <mxGeometry x="-2500" y="-1240" width="1610" height="74.4" as="geometry" />
        </mxCell>
        <mxCell id="0rNn3jMllliEmjTPZ6OU-10" value="T1 - Разработка Integration API для депозитов" style="shape=rect;fillColor=#ffe6cc;strokeColor=#d79b00;fontSize=18;html=1;whiteSpace=wrap;align=left;verticalAlign=top;spacing=5;rounded=0;" vertex="1" parent="1">
          <mxGeometry x="-2480" y="-1120" width="390" height="50" as="geometry" />
        </mxCell>
        <mxCell id="0rNn3jMllliEmjTPZ6OU-11" value="T2 - Интеграция с СМС-шлюзом" style="shape=rect;fillColor=#ffe6cc;strokeColor=#d79b00;fontSize=18;html=1;whiteSpace=wrap;align=center;verticalAlign=top;spacing=5;rounded=0;" vertex="1" parent="1">
          <mxGeometry x="-2090" y="-1040" width="550" height="60" as="geometry" />
        </mxCell>
        <mxCell id="0rNn3jMllliEmjTPZ6OU-12" value="T3 - Разработка Deposits Service" style="shape=rect;fillColor=#ffe6cc;strokeColor=#d79b00;fontSize=18;html=1;whiteSpace=wrap;align=center;verticalAlign=top;spacing=5;rounded=0;" vertex="1" parent="1">
          <mxGeometry x="-2400" y="-910" width="280" height="60" as="geometry" />
        </mxCell>
        <mxCell id="0rNn3jMllliEmjTPZ6OU-13" value="T4 - Разработка Rates Service" style="shape=rect;fillColor=#ffe6cc;strokeColor=#d79b00;fontSize=18;html=1;whiteSpace=wrap;align=center;verticalAlign=top;spacing=5;rounded=0;" vertex="1" parent="1">
          <mxGeometry x="-2120" y="-840" width="280" height="60" as="geometry" />
        </mxCell>
        <mxCell id="0rNn3jMllliEmjTPZ6OU-14" value="T5 - Обновление интерфейса для подачи заявок" style="shape=rect;fillColor=#ffe6cc;strokeColor=#d79b00;fontSize=18;html=1;whiteSpace=wrap;align=center;verticalAlign=top;spacing=5;rounded=0;" vertex="1" parent="1">
          <mxGeometry x="-1840" y="-770" width="280" height="60" as="geometry" />
        </mxCell>
        <mxCell id="0rNn3jMllliEmjTPZ6OU-15" value="T6 - Разработка API для получения ставок" style="shape=rect;fillColor=#ffe6cc;strokeColor=#d79b00;fontSize=18;html=1;whiteSpace=wrap;align=center;verticalAlign=top;spacing=5;rounded=0;" vertex="1" parent="1">
          <mxGeometry x="-2420" y="-670" width="280" height="60" as="geometry" />
        </mxCell>
        <mxCell id="0rNn3jMllliEmjTPZ6OU-16" value="T7 - Обновление интерфейса операторов" style="shape=rect;fillColor=#ffe6cc;strokeColor=#d79b00;fontSize=18;html=1;whiteSpace=wrap;align=center;verticalAlign=top;spacing=5;rounded=0;" vertex="1" parent="1">
          <mxGeometry x="-2140" y="-600" width="280" height="60" as="geometry" />
        </mxCell>
        <mxCell id="0rNn3jMllliEmjTPZ6OU-17" value="T8 - Обновление страницы депозитов" style="shape=rect;fillColor=#ffe6cc;strokeColor=#d79b00;fontSize=18;html=1;whiteSpace=wrap;align=center;verticalAlign=top;spacing=5;rounded=0;" vertex="1" parent="1">
          <mxGeometry x="-2410" y="-460" width="280" height="60" as="geometry" />
        </mxCell>
        <mxCell id="0rNn3jMllliEmjTPZ6OU-18" value="T9 - Интеграция с системой подачи заявок" style="shape=rect;fillColor=#ffe6cc;strokeColor=#d79b00;fontSize=18;html=1;whiteSpace=wrap;align=center;verticalAlign=top;spacing=5;rounded=0;" vertex="1" parent="1">
          <mxGeometry x="-2130" y="-390" width="280" height="60" as="geometry" />
        </mxCell>
        <mxCell id="0rNn3jMllliEmjTPZ6OU-19" value="T10 - Тестирование и развертывание MVP" style="shape=rect;fillColor=#ffe6cc;strokeColor=#d79b00;fontSize=18;html=1;whiteSpace=wrap;align=center;verticalAlign=top;spacing=5;rounded=0;" vertex="1" parent="1">
          <mxGeometry x="-1850" y="-320" width="280" height="60" as="geometry" />
        </mxCell>
      </root>
    </mxGraphModel>
  </diagram>
</mxfile>
